<svg width="824" height="620" viewBox="0 0 824 620" fill="none" xmlns="http://www.w3.org/2000/svg">
<path d="M154.014 521.505C162.382 531.949 171.408 542.041 181.093 551.726C189.836 560.469 198.91 568.675 208.274 576.343C210.942 574.004 217.444 569.103 225.005 563.795L429.442 420.009C443.941 409.81 463.675 395.865 473.297 389.023C523.182 353.527 538.533 346.546 560.684 349.258C572.932 350.76 591.907 359.533 599.641 367.267C607.329 374.955 617.122 398.581 617.564 410.506C619.703 468.261 549.609 499.997 509.185 459.573C503.455 453.842 497.173 446.294 495.227 442.798L491.688 436.441L465.997 453.743C431.673 476.867 429.391 479.273 434.535 486.967C450.759 511.223 473.136 530.344 497.344 540.641C516.654 548.855 529.566 551.35 553.862 551.563C576.608 551.762 589.089 549.147 612.513 539.268C626.968 533.171 629.533 531.22 650.085 510.668C670.837 489.916 672.563 487.631 679.247 472.081C706.951 407.62 687.206 337.6 630.325 298.592C580.881 264.68 518.912 266.239 467.316 302.689C462.215 306.295 453.087 312.705 443.465 319.448L426.567 331.264C389.213 357.35 338.021 393.247 307.558 414.707C293.071 424.913 268.934 441.896 253.919 452.449C238.906 463.001 219.185 476.958 210.095 483.466C188.427 498.986 159.574 518.519 154.014 521.505Z" fill="#1D5B68" fill-opacity="0.1"/>
<path d="M718.817 73.0975C710.225 62.2988 700.933 51.866 690.943 41.8762C682.101 33.0344 672.918 24.7393 663.438 16.9945C659.437 21.2927 639.658 35.7359 597.181 65.4561C582.395 75.7997 555.307 94.7962 536.988 107.673C518.667 120.547 494.461 137.462 483.198 145.263C471.935 153.064 453.213 166.288 441.597 174.653C429.978 183.014 413.332 194.728 404.604 200.681C395.874 206.632 380.893 217.133 371.308 224.013C345.017 242.889 326.641 248.099 303.745 243.166C290.2 240.25 270.589 224.301 262.116 209.308C255.218 197.107 253.908 172.822 259.337 157.795C269.113 130.725 299.126 112.439 327.237 116.426C350.642 119.745 368.117 131.253 376.55 148.899C378.786 153.581 380.875 157.38 381.189 157.339C384.399 156.915 441.851 115.254 441.844 113.35C441.842 112.564 435.916 104.356 428.675 95.1108C393.098 49.7025 336.583 31.4925 279.377 47.0027C246.994 55.7824 213.683 82.8766 197.701 113.427C175.898 155.105 175.263 199.514 195.842 243.037C202.322 256.735 205.743 261.225 222.343 277.815C238.184 293.643 243.765 297.996 255.357 303.56C285.195 317.876 317.131 322.672 346.026 317.176C359.72 314.569 388.29 304.012 392.178 300.124C393.595 298.708 403.408 291.742 413.986 284.645C432.154 272.453 449.228 260.515 498.738 225.401C510.398 217.129 534.165 200.485 551.552 188.409C568.939 176.334 590.173 161.41 598.733 155.238C607.297 149.07 621.471 139.139 630.236 133.173C635.465 129.613 642.932 124.448 650.149 119.409C655.031 116.004 659.799 112.657 663.684 109.901L699.631 84.4031C711.614 75.9013 715.878 72.9711 718.817 73.0975Z" fill="#1D5B68" fill-opacity="0.1"/>
<path d="M690.943 41.8762C700.933 51.866 710.225 62.2988 718.817 73.0975L823.639 -0.867089L737.273 -34.6575L663.438 16.9945C672.918 24.7393 682.101 33.0344 690.943 41.8762Z" fill="#1D5B68" fill-opacity="0.1"/>
<path d="M181.093 551.726C171.408 542.041 162.382 531.949 154.014 521.505L0.650926 627.698L146.23 621.596L208.274 576.343C198.91 568.675 189.836 560.469 181.093 551.726Z" fill="#1D5B68" fill-opacity="0.1"/>
</svg>
