<svg width="194" height="62" fill="none" xmlns="http://www.w3.org/2000/svg"><g opacity=".8" clip-path="url(#a)"><path d="m34.323.04-5.71 32.77c-.976 5.552-5.84 9.79-11.67 9.79-6.537 0-11.85-5.312-11.85-11.849 0-6.536 5.313-11.848 11.85-11.848 1.194 0 2.338.179 3.432.507l-1.104 6.337a5.503 5.503 0 0 0-2.328-.517 5.528 5.528 0 0 0-5.522 5.521 5.528 5.528 0 0 0 5.522 5.522 5.518 5.518 0 0 0 5.491-5.024l.02-.02L27.896 0C12.236 1.512 0 14.704 0 30.752c0 16.047 12.018 29 27.478 30.711l5.71-32.77c.976-5.552 5.84-9.79 11.67-9.79 6.537 0 11.85 5.312 11.85 11.849 0 6.536-5.313 11.848-11.85 11.848-1.193 0-2.337-.179-3.432-.507l1.105-6.337a5.503 5.503 0 0 0 2.328.517 5.528 5.528 0 0 0 5.521-5.522 5.528 5.528 0 0 0-5.521-5.521 5.518 5.518 0 0 0-5.492 5.024l-.02.02-5.442 31.229c15.66-1.512 27.896-14.704 27.896-30.752 0-16.047-12.028-29-27.478-30.711Z" fill="#00786A"/><path d="M88.136 20.524h1.581v6.168h-3.263v-2.885h-9.64v2.885h-3.263v-6.168h1.303c.229-.189.428-.388.597-.607.16-.219.318-.557.468-1.034.149-.478.268-.965.358-1.463.09-.497.199-1.283.318-2.338.12-1.054.219-2.109.319-3.154.099-1.044.218-2.517.368-4.407h10.844v13.013l.01-.01Zm-7.79-9.73c-.19 3.015-.408 5.213-.677 6.626-.268 1.403-.656 2.438-1.164 3.104h6.119v-9.73h-4.278ZM104.292 17.47c0 .328-.02.657-.069 1.005h-9.501c.139.855.477 1.512 1.014 1.97.538.457 1.224.686 2.06.686.577 0 1.094-.13 1.562-.388a2.863 2.863 0 0 0 1.094-1.054h3.582c-.468 1.363-1.254 2.447-2.378 3.263-1.114.806-2.408 1.213-3.86 1.213-1.86 0-3.413-.636-4.656-1.91-1.244-1.273-1.86-2.845-1.86-4.725 0-.747.099-1.463.318-2.14a6.11 6.11 0 0 1 .905-1.84 6.655 6.655 0 0 1 1.383-1.413 5.86 5.86 0 0 1 1.79-.915 6.75 6.75 0 0 1 2.12-.328c1.253 0 2.387.298 3.382.885a6.006 6.006 0 0 1 2.308 2.398c.538 1.005.806 2.11.806 3.303v-.01Zm-6.496-3.701c-.756 0-1.403.209-1.92.627-.518.418-.876 1.005-1.055 1.74h6.079c-.159-.516-.378-.944-.677-1.292a3.077 3.077 0 0 0-1.054-.806 3.21 3.21 0 0 0-1.363-.279l-.01.01ZM108.759 11.232h8.984v12.565h-3.333v-9.61h-2.885l-.418 4.467c-.189 1.89-.686 3.233-1.512 4.03-.826.795-2.059 1.183-3.701 1.183h-.557v-3.074h.836c.467 0 .855-.16 1.164-.488.308-.328.497-.796.557-1.392l.865-7.68ZM126.986 24.155c-1.284 0-2.448-.288-3.492-.865a6.25 6.25 0 0 1-2.438-2.388 6.747 6.747 0 0 1-.875-3.382c0-1.91.646-3.492 1.93-4.746 1.283-1.253 2.905-1.89 4.865-1.89 1.96 0 3.551.627 4.845 1.89 1.283 1.254 1.93 2.836 1.93 4.746 0 1.91-.647 3.472-1.94 4.735-1.294 1.264-2.905 1.9-4.835 1.9h.01Zm0-3.193c.975 0 1.78-.318 2.397-.965.617-.647.935-1.473.935-2.477 0-1.005-.308-1.83-.935-2.477-.627-.647-1.422-.966-2.407-.966-.985 0-1.791.319-2.408.966-.617.646-.935 1.472-.935 2.477 0 .497.079.965.249 1.393.169.427.388.795.686 1.094.299.298.647.527 1.055.696.408.17.865.259 1.363.259ZM145.241 17.122c.577.268 1.025.646 1.334 1.154.318.507.477 1.094.477 1.76 0 1.075-.378 1.97-1.124 2.687-.756.726-1.701 1.084-2.855 1.084h-6.865V11.242h6.795c1.074 0 1.95.298 2.646.895.687.597 1.035 1.363 1.035 2.289 0 .557-.129 1.074-.388 1.552a3.18 3.18 0 0 1-1.055 1.154v-.01Zm-1.89-2.14c0-.248-.05-.457-.159-.636a1.095 1.095 0 0 0-.458-.418c-.199-.1-.417-.149-.666-.149h-2.537v2.418h2.537c.378 0 .676-.12.915-.349.239-.229.358-.517.358-.865h.01Zm-1.114 6.12c.418 0 .756-.11 1.005-.339.248-.229.378-.537.378-.935s-.12-.707-.378-.945c-.249-.23-.577-.348-1.005-.348h-2.696v2.556h2.696v.01ZM155.548 24.155c-1.283 0-2.447-.288-3.492-.865a6.247 6.247 0 0 1-2.437-2.388 6.748 6.748 0 0 1-.876-3.382c0-1.91.647-3.492 1.93-4.746 1.284-1.253 2.905-1.89 4.865-1.89 1.96 0 3.552.627 4.845 1.89 1.284 1.254 1.93 2.836 1.93 4.746 0 1.91-.646 3.472-1.94 4.735-1.293 1.264-2.905 1.9-4.835 1.9h.01Zm0-3.193c.975 0 1.781-.318 2.398-.965.617-.647.935-1.473.935-2.477 0-1.005-.309-1.83-.935-2.477-.627-.647-1.423-.966-2.408-.966-.985 0-1.791.319-2.407.966-.617.646-.936 1.472-.936 2.477 0 .497.08.965.249 1.393.169.427.388.795.687 1.094.298.298.646.527 1.054.696.408.17.866.259 1.363.259ZM173.913 11.232h1.911v12.565h-3.284v-6.655l-5.839 6.655h-1.93V11.232h3.283v6.586l5.869-6.586h-.01Zm-.209-4.308v2.517h-6.397V6.924h6.397ZM89.628 38.93c0 1.213-.279 2.307-.826 3.292a6.22 6.22 0 0 1-2.278 2.348c-.975.577-2.07.906-3.293.965v3.612h-3.074v-3.612c-1.224-.06-2.328-.388-3.303-.965a6.076 6.076 0 0 1-2.278-2.348c-.548-.985-.816-2.079-.816-3.293 0-1.83.607-3.372 1.81-4.636 1.214-1.253 2.736-1.93 4.587-2.03v-3.491h3.074v3.492c1.83.11 3.353.786 4.576 2.04 1.214 1.253 1.83 2.785 1.83 4.615l-.009.01Zm-12.595 0c0 1.004.298 1.86.885 2.556a3.27 3.27 0 0 0 2.259 1.184V35.15c-.916.09-1.672.497-2.259 1.214-.587.716-.885 1.572-.885 2.556v.01Zm6.128 3.75a3.392 3.392 0 0 0 1.652-.607 3.457 3.457 0 0 0 1.124-1.343 4.054 4.054 0 0 0 .408-1.8c0-.995-.299-1.851-.905-2.557a3.351 3.351 0 0 0-2.279-1.214v7.521ZM102.312 32.602h2.537v12.565h-2.676l-.279-1.114c-1.144.995-2.507 1.492-4.069 1.492-1.89 0-3.462-.637-4.715-1.9-1.254-1.264-1.87-2.855-1.87-4.756 0-1.9.626-3.472 1.87-4.725 1.253-1.254 2.815-1.89 4.715-1.89 1.602 0 2.975.507 4.119 1.532l.378-1.214-.01.01Zm-6.665 8.755c.646.647 1.462.975 2.447.975.985 0 1.8-.328 2.457-.975.657-.657.975-1.473.975-2.468 0-.994-.328-1.82-.975-2.467-.656-.656-1.462-.975-2.447-.975-.657 0-1.234.15-1.761.458a3.309 3.309 0 0 0-1.224 1.233c-.298.518-.447 1.105-.447 1.762 0 .994.318 1.81.965 2.467l.01-.01ZM114.977 32.274c1.891 0 3.462.626 4.716 1.89 1.254 1.253 1.87 2.835 1.87 4.745 0 1.91-.626 3.492-1.89 4.756-1.253 1.263-2.825 1.9-4.706 1.9-1.283 0-2.447-.348-3.472-1.044v5.213h-3.402V32.622h2.258l.577 1.144c1.114-.995 2.457-1.492 4.029-1.492h.02Zm-2.736 9.103c.647.646 1.463.975 2.448.975.985 0 1.8-.329 2.457-.975.657-.657.975-1.473.975-2.468 0-.656-.149-1.243-.438-1.77a3.237 3.237 0 0 0-1.223-1.234c-.518-.299-1.105-.438-1.761-.438a3.62 3.62 0 0 0-1.771.438 3.112 3.112 0 0 0-1.224 1.233c-.288.528-.428 1.115-.428 1.771 0 .995.319 1.811.965 2.468ZM133.014 38.511c.577.27 1.025.647 1.333 1.155.318.507.478 1.094.478 1.76 0 1.075-.378 1.97-1.125 2.687-.756.726-1.701 1.084-2.855 1.084h-6.865V32.632h6.795c1.075 0 1.95.298 2.647.895.686.597 1.034 1.363 1.034 2.288 0 .558-.129 1.075-.388 1.552a3.168 3.168 0 0 1-1.054 1.155v-.01Zm-1.88-2.138c0-.25-.05-.458-.16-.637a1.092 1.092 0 0 0-.457-.418 1.46 1.46 0 0 0-.667-.15h-2.537v2.418h2.537c.378 0 .677-.12.916-.348a1.15 1.15 0 0 0 .358-.865h.01Zm-1.125 6.118c.418 0 .757-.11 1.005-.338.249-.23.378-.538.378-.935 0-.398-.119-.707-.378-.946-.248-.228-.577-.348-1.005-.348h-2.696v2.557h2.696v.01ZM147.609 32.602h2.537v12.565h-2.676l-.279-1.114c-1.144.995-2.507 1.492-4.069 1.492-1.89 0-3.462-.637-4.716-1.9-1.253-1.264-1.87-2.855-1.87-4.756 0-1.9.627-3.472 1.87-4.725 1.254-1.254 2.816-1.89 4.716-1.89 1.602 0 2.975.507 4.119 1.532l.378-1.214-.01.01Zm-6.666 8.755c.647.647 1.463.975 2.448.975.985 0 1.801-.328 2.457-.975.657-.657.975-1.473.975-2.468 0-.994-.328-1.82-.975-2.467-.656-.656-1.462-.975-2.447-.975-.657 0-1.234.15-1.761.458a3.31 3.31 0 0 0-1.224 1.233c-.298.518-.448 1.105-.448 1.762 0 .994.319 1.81.965 2.467l.01-.01ZM163.716 32.622v3.044h-4.099v9.521h-3.333v-9.52h-4.098v-3.045h11.53ZM177.684 38.86c0 .328-.02.656-.07 1.005h-9.501c.139.855.478 1.512 1.015 1.97.537.457 1.224.686 2.059.686.577 0 1.095-.13 1.562-.388a2.861 2.861 0 0 0 1.095-1.055h3.581c-.467 1.363-1.253 2.448-2.378 3.263-1.114.806-2.407 1.214-3.86 1.214-1.86 0-3.412-.637-4.656-1.91-1.243-1.273-1.86-2.845-1.86-4.726 0-.746.099-1.462.318-2.139a6.112 6.112 0 0 1 .906-1.84 6.658 6.658 0 0 1 1.382-1.413 5.875 5.875 0 0 1 1.791-.915 6.751 6.751 0 0 1 2.119-.328c1.254 0 2.388.298 3.383.885a6.006 6.006 0 0 1 2.308 2.398c.537 1.005.806 2.109.806 3.303v-.01Zm-6.497-3.701c-.756 0-1.402.209-1.92.627-.517.417-.875 1.004-1.054 1.74h6.078c-.159-.517-.378-.945-.676-1.293a3.085 3.085 0 0 0-1.055-.806 3.21 3.21 0 0 0-1.363-.278l-.01.01ZM186.967 32.274c1.89 0 3.462.626 4.715 1.89 1.254 1.253 1.871 2.835 1.871 4.745 0 1.91-.627 3.492-1.891 4.756-1.253 1.263-2.825 1.9-4.705 1.9-1.284 0-2.448-.348-3.473-1.044v5.213h-3.402V32.622h2.258l.577 1.144c1.115-.995 2.458-1.492 4.03-1.492h.02Zm-2.736 9.103c.646.646 1.462.975 2.447.975.985 0 1.801-.329 2.457-.975.657-.657.975-1.473.975-2.468 0-.656-.149-1.243-.437-1.77a3.246 3.246 0 0 0-1.224-1.234c-.517-.299-1.104-.438-1.761-.438a3.62 3.62 0 0 0-1.771.438 3.112 3.112 0 0 0-1.224 1.233c-.288.528-.427 1.115-.427 1.771 0 .995.318 1.811.965 2.468ZM78.824 54.002h1.044v5.163h-1.094l-.12-.458c-.467.408-1.024.607-1.67.607-.777 0-1.423-.258-1.94-.776-.518-.517-.767-1.174-.767-1.96s.259-1.422.766-1.94c.518-.517 1.154-.776 1.94-.776.657 0 1.224.21 1.692.627l.149-.497v.01Zm-2.736 3.601c.269.269.597.398 1.005.398.408 0 .746-.13 1.005-.398.268-.269.398-.607.398-1.015 0-.408-.13-.746-.398-1.014-.269-.27-.607-.398-1.005-.398-.269 0-.508.06-.726.189-.21.119-.379.288-.498.507-.12.209-.179.458-.179.726 0 .408.13.746.398 1.015v-.01ZM85.987 57.872h.627v2.497H85.35v-1.184h-3.233v1.184h-1.273v-2.497h.537c.199-.16.338-.468.438-.925.09-.458.209-1.433.338-2.925h3.82v3.85h.01Zm-2.596-2.637c-.05.786-.12 1.373-.2 1.761-.079.388-.198.677-.358.866h1.791v-2.627h-1.233ZM91.488 56.43c.239.109.418.268.547.477.13.209.2.447.2.726 0 .438-.16.806-.468 1.104-.309.299-.697.448-1.174.448h-2.816v-5.163h2.796c.438 0 .806.119 1.084.368.279.248.428.557.428.945 0 .229-.05.438-.16.636-.108.2-.248.349-.437.478v-.02Zm-.776-.876c0-.1-.02-.19-.07-.259a.515.515 0 0 0-.457-.229H89.14v.995h1.045c.15 0 .278-.05.378-.14.1-.099.15-.208.15-.357v-.01Zm-.457 2.517c.169 0 .308-.05.407-.14.1-.09.15-.218.15-.378 0-.159-.05-.288-.15-.388-.099-.1-.238-.139-.407-.139H89.14v1.055h1.115v-.01ZM95.816 59.324a2.89 2.89 0 0 1-1.433-.358 2.603 2.603 0 0 1-.995-.975 2.766 2.766 0 0 1-.358-1.393c0-.786.269-1.432.796-1.95.527-.517 1.194-.776 2-.776s1.462.259 1.99.776c.527.518.796 1.164.796 1.95s-.27 1.423-.796 1.95c-.538.517-1.194.776-1.98.776h-.02Zm0-1.313c.398 0 .726-.13.985-.398.258-.269.378-.607.378-1.015 0-.408-.13-.756-.378-1.014-.259-.27-.587-.399-.985-.399s-.736.13-.995.398c-.259.27-.378.607-.378 1.015 0 .21.03.398.1.577.07.18.159.329.278.448.12.12.269.219.438.288.169.07.358.11.557.11v-.01ZM104.442 59.175h-1.682l-1.661-2.467v2.467h-1.393v-5.163h1.393v2.298l1.572-2.298h1.592l-1.751 2.467 1.94 2.696h-.01ZM109.147 54.002h1.045v5.163h-1.095l-.119-.458c-.468.408-1.025.607-1.671.607-.776 0-1.423-.258-1.94-.776-.518-.517-.766-1.174-.766-1.96s.258-1.422.766-1.94c.517-.517 1.154-.776 1.94-.776.656 0 1.223.21 1.691.627l.149-.497v.01Zm-2.736 3.601c.269.269.597.398 1.005.398.408 0 .746-.13 1.005-.398.269-.269.398-.607.398-1.015 0-.408-.129-.746-.398-1.014-.269-.27-.607-.398-1.005-.398-.269 0-.507.06-.726.189a1.29 1.29 0 0 0-.498.507 1.46 1.46 0 0 0-.179.726c0 .408.13.746.398 1.015v-.01ZM115.863 54.012v1.253h-1.681v3.91h-1.363v-3.91h-1.681v-1.253h4.735-.01ZM119.086 59.324c-.507 0-.975-.12-1.392-.358a2.595 2.595 0 0 1-.985-.985 2.763 2.763 0 0 1-.358-1.393c0-.776.258-1.412.786-1.93.527-.517 1.173-.776 1.959-.776.667 0 1.244.19 1.722.577.477.388.786.896.905 1.532h-1.383a1.375 1.375 0 0 0-.497-.587 1.37 1.37 0 0 0-.747-.219c-.378 0-.686.13-.945.398a1.435 1.435 0 0 0-.378 1.005c0 .398.13.736.378 1.015.259.279.567.408.935.408a1.3 1.3 0 0 0 .747-.229c.219-.15.388-.368.507-.646h1.403c-.13.656-.438 1.183-.915 1.581-.488.398-1.065.597-1.742.597v.01ZM127.503 59.175h-1.681l-1.662-2.467v2.467h-1.392v-5.163h1.392v2.298l1.572-2.298h1.592l-1.751 2.467 1.94 2.696h-.01ZM130.458 59.324a2.89 2.89 0 0 1-1.433-.358 2.604 2.604 0 0 1-.995-.975 2.764 2.764 0 0 1-.358-1.393c0-.786.269-1.432.796-1.95.527-.517 1.194-.776 1.999-.776.806 0 1.463.259 1.99.776.527.518.796 1.164.796 1.95s-.269 1.423-.796 1.95c-.537.517-1.194.776-1.98.776h-.019Zm0-1.313c.397 0 .726-.13.984-.398.259-.269.379-.607.379-1.015 0-.408-.13-.756-.379-1.014-.258-.27-.587-.399-.984-.399-.398 0-.737.13-.995.398-.259.27-.378.607-.378 1.015 0 .21.029.398.099.577.07.18.159.329.279.448.119.12.268.219.437.288.17.07.359.11.558.11v-.01ZM139.341 56.578c0 .13 0 .269-.029.408h-3.9c.059.349.199.617.418.806.218.19.497.279.845.279.239 0 .448-.05.637-.16.189-.109.338-.248.448-.437h1.472a2.716 2.716 0 0 1-.975 1.343 2.65 2.65 0 0 1-1.582.497c-.766 0-1.403-.258-1.91-.786-.507-.517-.766-1.174-.766-1.94 0-.308.04-.597.129-.875a2.64 2.64 0 0 1 .945-1.333c.219-.16.458-.289.737-.378.278-.09.567-.13.875-.13.517 0 .975.12 1.393.368.408.24.726.567.945.985.219.418.328.866.328 1.353h-.01Zm-2.666-1.522c-.308 0-.577.09-.786.259a1.31 1.31 0 0 0-.437.716h2.497a1.299 1.299 0 0 0-1.274-.975ZM145.58 54.23c.756 0 1.363.23 1.82.687.458.458.687 1.064.687 1.81 0 .787-.249 1.413-.746 1.89-.498.478-1.154.717-1.98.717-.886 0-1.572-.269-2.06-.816-.487-.547-.726-1.313-.726-2.308 0-1.144.249-2.04.736-2.696.498-.657 1.264-1.124 2.309-1.383l1.721-.418v1.363l-1.712.418c-.845.21-1.353.617-1.502 1.214a2.4 2.4 0 0 1 1.433-.468l.02-.01Zm-1.154 3.433c.248.248.567.368.945.368s.696-.12.945-.368c.249-.249.368-.567.368-.945a1.32 1.32 0 0 0-.368-.955c-.249-.26-.557-.378-.935-.378-.259 0-.488.06-.687.169-.199.119-.358.268-.467.477-.11.2-.169.428-.169.687 0 .378.119.696.378.945h-.01ZM153.797 53.872c.786 0 1.443.259 1.96.776.517.518.776 1.164.776 1.95s-.259 1.453-.766 1.96c-.507.508-1.164.766-1.96.766-.667 0-1.234-.189-1.701-.567-.468-.378-.766-.885-.896-1.502h-.616v1.93h-1.373v-5.163h1.373v1.93h.616c.13-.627.428-1.125.896-1.503.467-.378 1.034-.567 1.701-.567l-.01-.01Zm-.955 3.741c.259.269.577.408.965.408s.706-.14.965-.408c.259-.269.388-.607.388-1.015 0-.408-.129-.746-.388-1.014a1.285 1.285 0 0 0-.965-.408c-.388 0-.706.139-.965.407-.259.27-.388.607-.388 1.015 0 .408.129.746.388 1.015ZM160.453 53.872c.776 0 1.423.259 1.94.776.517.518.766 1.164.766 1.95s-.258 1.433-.776 1.96c-.517.517-1.164.776-1.93.776a2.45 2.45 0 0 1-1.423-.428v2.14h-1.392v-7.024h.925l.239.467a2.41 2.41 0 0 1 1.651-.617Zm-1.124 3.741c.269.269.597.398 1.005.398.408 0 .736-.13 1.005-.398.268-.269.398-.607.398-1.015 0-.268-.06-.507-.18-.726a1.28 1.28 0 0 0-.497-.507 1.456 1.456 0 0 0-.726-.18c-.269 0-.508.06-.726.18a1.17 1.17 0 0 0-.498.507 1.487 1.487 0 0 0-.179.726c0 .408.129.746.398 1.015ZM166.71 59.324c-.527 0-1.004-.12-1.432-.358a2.604 2.604 0 0 1-.995-.975 2.764 2.764 0 0 1-.358-1.393c0-.786.268-1.432.796-1.95.527-.517 1.194-.776 1.999-.776.806 0 1.463.259 1.99.776.527.518.796 1.164.796 1.95s-.269 1.423-.796 1.95c-.537.517-1.194.776-1.98.776h-.02Zm0-1.313c.398 0 .727-.13.985-.398.259-.269.378-.607.378-1.015 0-.408-.129-.756-.378-1.014-.258-.27-.587-.399-.985-.399s-.736.13-.994.398c-.259.27-.378.607-.378 1.015 0 .21.029.398.099.577.07.18.159.329.279.448.119.12.268.219.437.288.169.07.358.11.557.11v-.01Z" fill="#222"/></g><defs><clipPath id="a"><path fill="#fff" d="M0 0h194v62H0z"/></clipPath></defs></svg>